<?xml version="1.0" encoding="UTF-8"?>
<svg width="260px" height="260px" viewBox="0 0 260 260" version="1.1" xmlns="http://www.w3.org/2000/svg" xmlns:xlink="http://www.w3.org/1999/xlink">
    <title>ios-launch-screen-image@1x</title>
    <defs>
        <radialGradient cx="17.5270343%" cy="7.22661767%" fx="17.5270343%" fy="7.22661767%" r="252.145828%" id="radialGradient-1">
            <stop stop-color="#00D4B6" offset="0%"></stop>
            <stop stop-color="#DA00BB" offset="61.6775794%"></stop>
            <stop stop-color="#0078F7" offset="100%"></stop>
        </radialGradient>
        <radialGradient cx="50%" cy="0%" fx="50%" fy="0%" r="100%" gradientTransform="translate(0.500000,0.000000),scale(0.894792,1.000000),rotate(90.000000),translate(-0.500000,-0.000000)" id="radialGradient-2">
            <stop stop-color="#78F6DD" offset="0%"></stop>
            <stop stop-color="#FFFFFF" offset="100%"></stop>
        </radialGradient>
        <path d="M212.596098,167.5297 C212.590032,167.5219 212.584398,167.516267 212.577898,167.5089 C212.862598,166.539967 213.156398,165.5771 213.405565,164.5839 C224.087232,122.026667 198.017465,71.7123333 153.901965,45.2205 C173.234265,71.4280667 181.782198,103.171467 174.187598,130.931667 C173.510298,133.407733 172.696065,135.784133 171.796032,138.0938 C170.819298,137.452033 169.588632,136.7236 167.935898,135.8123 C167.935898,135.8123 124.052665,108.717267 76.4904318,60.7927667 C75.2424318,59.5348 101.852565,98.8264333 132.051998,130.732333 C117.823932,122.7473 78.1721985,93.8972667 53.0700651,70.9223667 C56.1540985,76.0656 59.8222651,81.0181667 63.8544318,85.7861333 C84.8169318,112.3707 112.154632,145.171867 144.906398,170.359367 C121.894665,184.441833 89.3786318,185.536867 57.0038651,170.3741 C48.9962985,166.621433 41.4684318,162.093533 34.4999985,156.949 C48.2041651,178.869167 69.3105318,197.781567 94.9989651,208.822467 C125.633465,221.987567 156.097232,221.0949 178.786565,209.038267 L178.768798,209.064267 C178.872365,208.998833 179.004098,208.927333 179.111565,208.861033 C180.043232,208.3601 180.967965,207.850067 181.872332,207.311433 C192.773698,201.652967 214.306032,195.912167 225.863465,218.399567 C228.693998,223.9029 234.708665,194.737833 212.596098,167.5297 Z" id="path-3"></path>
        <filter x="-3.6%" y="-2.9%" width="107.2%" height="108.1%" filterUnits="objectBoundingBox" id="filter-4">
            <feOffset dx="0" dy="2" in="SourceAlpha" result="shadowOffsetOuter1"></feOffset>
            <feGaussianBlur stdDeviation="2" in="shadowOffsetOuter1" result="shadowBlurOuter1"></feGaussianBlur>
            <feColorMatrix values="0 0 0 0 0   0 0 0 0 0   0 0 0 0 0  0 0 0 0.347191871 0" type="matrix" in="shadowBlurOuter1"></feColorMatrix>
        </filter>
    </defs>
    <g id="ios-launch-screen-image" stroke="none" stroke-width="1" fill="none" fill-rule="evenodd">
        <rect id="Rectangle" fill="url(#radialGradient-1)" x="0" y="0" width="260" height="260" rx="10"></rect>
        <g id="Path" fill-rule="nonzero">
            <use fill="black" fill-opacity="1" filter="url(#filter-4)" xlink:href="#path-3"></use>
            <use fill="url(#radialGradient-2)" xlink:href="#path-3"></use>
        </g>
    </g>
</svg>